<?xml version="1.0" encoding="utf-8"?>
<!-- Generator: Adobe Illustrator 24.0.3, SVG Export Plug-In . SVG Version: 6.00 Build 0)  -->
<svg version="1.1" id="Layer_1" xmlns="http://www.w3.org/2000/svg" xmlns:xlink="http://www.w3.org/1999/xlink" x="0px" y="0px"
	 viewBox="0 0 150 150" style="enable-background:new 0 0 150 150;" xml:space="preserve">
<style type="text/css">
	.st0{fill:#00C1F2;}
</style>
<path class="st0" d="M146.1,66.4V64l-1.1,2.4h-0.3l-1.1-2.4v2.4h-0.5v-3.3h0.6l1.2,2.6l1.2-2.6h0.6v3.3H146.1z"/>
<path class="st0" d="M147.2,64.8c0-0.2,0-0.4,0.1-0.6c0.1-0.2,0.2-0.4,0.3-0.5c0.1-0.2,0.3-0.3,0.5-0.4c0.2-0.1,0.4-0.1,0.7-0.1
	c0.3,0,0.5,0.1,0.8,0.2c0.2,0.1,0.4,0.3,0.5,0.5l-0.4,0.3c0-0.1-0.1-0.2-0.2-0.3c-0.1-0.1-0.1-0.1-0.2-0.2c-0.1,0-0.2-0.1-0.2-0.1
	c-0.1,0-0.2,0-0.2,0c-0.2,0-0.3,0-0.4,0.1c-0.1,0.1-0.2,0.2-0.3,0.3c-0.1,0.1-0.2,0.2-0.2,0.4c0,0.1-0.1,0.3-0.1,0.4
	c0,0.2,0,0.3,0.1,0.5c0,0.1,0.1,0.3,0.2,0.4c0.1,0.1,0.2,0.2,0.3,0.3c0.1,0.1,0.3,0.1,0.4,0.1c0.1,0,0.2,0,0.2,0
	c0.1,0,0.2-0.1,0.2-0.1c0.1,0,0.2-0.1,0.2-0.2c0.1-0.1,0.1-0.2,0.2-0.2l0.4,0.3c-0.1,0.1-0.1,0.2-0.2,0.3c-0.1,0.1-0.2,0.2-0.3,0.2
	c-0.2,0.1-0.5,0.2-0.8,0.2c-0.2,0-0.4-0.1-0.6-0.2c-0.2-0.1-0.4-0.2-0.5-0.4C147.4,65.6,147.2,65.2,147.2,64.8L147.2,64.8z"/>
<path class="st0" d="M132.9,62.9c-2.5-0.3-5-0.3-7.5,0c-4,0.5-6.2,1.3-7.6,4.7c-0.9,2.2-1.2,4.9-1.2,7.6c0,2.4,0.2,5,1,7.2
	c1.4,3.8,3.5,4.7,7.8,5.2c1.2,0.1,2.5,0.2,3.8,0.2c1.3,0,2.6-0.1,3.9-0.2c3.9-0.5,6.5-1.7,7.8-5.4l-5-1.2c-0.5,1.2-1.3,1.4-2.8,1.8
	c-1.2,0.3-2.5,0.4-3.8,0.4c-1.2,0-2.5-0.1-3.7-0.3c-2.1-0.4-2.7-0.8-3.2-3c-0.2-0.9-0.3-1.9-0.4-2.8h19.6
	C142,67.9,140.9,63.9,132.9,62.9z M121.9,72.8c0-0.9,0.2-1.8,0.4-2.7c0.4-1.8,1.2-2.2,3.1-2.5c1.2-0.2,2.5-0.3,3.8-0.3
	c1.3,0,2.6,0.1,3.8,0.3c3.2,0.5,3.8,1.4,3.8,5.3L121.9,72.8z"/>
<polygon class="st0" points="108.3,63.1 100.2,82.6 92.1,63.1 86.5,63.1 96.4,87.2 104,87.2 113.9,63.1 108.3,63.1 "/>
<path class="st0" d="M54.7,71.4c0-4.7-2.1-8.4-7.9-8.4l-15.4,0v24.1h5.2v-7.5h6.6l4.9,7.5h5.9l-5.1-8C52.2,79.2,54.7,75.9,54.7,71.4
	z M46.5,75.3h-9.9v-7.5h9.9c2.3,0,3,1.8,3,3.7C49.6,73.3,48.9,75.3,46.5,75.3L46.5,75.3z"/>
<path class="st0" d="M0,75.1c0,2.6,0.3,5.3,1.1,7.4c1.4,3.7,3.8,4.4,7.7,4.9c1.2,0.2,2.5,0.2,3.8,0.2c1.3,0,2.5-0.1,3.8-0.2
	c4.1-0.5,6.5-1.6,7.9-4.9c0.3-0.8,0.5-1.6,0.6-2.4l-5-1.1c-0.6,2.4-1.3,2.9-3.5,3.3c-1.3,0.2-2.5,0.3-3.8,0.3
	c-1.3,0-2.5-0.1-3.8-0.4c-1.9-0.4-2.3-0.8-2.8-2.5c-0.4-1.2-0.5-3-0.5-4.7c0-1.7,0.2-3.4,0.5-4.7c0.5-1.6,0.9-2.1,2.8-2.5
	c1.2-0.2,2.5-0.4,3.8-0.4c1.3,0,2.6,0.1,3.8,0.3c2.1,0.4,2.9,0.9,3.5,3.3l5-1.2c-0.1-0.8-0.3-1.6-0.6-2.4c-1.4-3.3-3.8-4.4-7.9-4.9
	c-1.3-0.2-2.5-0.2-3.8-0.2c-1.3,0-2.5,0.1-3.8,0.2c-3.9,0.5-6.3,1.2-7.7,4.9C0.3,69.9,0,72.6,0,75.1z"/>
<path class="st0" d="M82.8,70.8c0-6.5-4.5-8.2-11.8-8.2c-3.3,0-6.7,0.5-9.1,1.2l1.3,4.4c2.6-0.6,5.2-0.9,7.8-0.9
	c4.8,0.1,7,0.4,6.7,4.9c-2.2-0.2-4.4-0.3-6.7-0.3c-7.8,0.2-11.8,1.1-11.8,7.4c0,6.6,4,8.4,11.8,8.4c3.2,0,7.3-0.1,11.9-1.4
	L82.8,70.8z M77.7,82.5C75.5,82.9,73.2,83,71,83c-5-0.1-6.7-0.1-6.7-3.6c0-2.9,2.3-3,6.7-3c2.2,0,4.5,0.2,6.7,0.4L77.7,82.5z"/>
</svg>
