<svg xmlns="http://www.w3.org/2000/svg"><symbol id="play" viewBox="0 0 150 150"><path d="M75.16.24A74.84 74.84 0 1 0 150 75.08 74.84 74.84 0 0 0 75.16.24zM60.91 101.07V45.33L98.07 73.2z"/></symbol><symbol id="facebook" viewBox="0 0 150 150"><path d="M150 16.23a15.51 15.51 0 0 0-4.69-11.38A15.54 15.54 0 0 0 133.92.16H16.07A15.5 15.5 0 0 0 4.69 4.85 15.53 15.53 0 0 0 0 16.23v117.86a15.5 15.5 0 0 0 4.69 11.38 15.5 15.5 0 0 0 11.38 4.69H82V90.9H61.61V68.14H82V51.4a29.63 29.63 0 0 1 7.9-21.93 28.72 28.72 0 0 1 21.26-7.87 125.07 125.07 0 0 1 17.41 1v20.1h-12a11.59 11.59 0 0 0-9 3 13.33 13.33 0 0 0-2 8v14.4h23.11l-3 22.76h-20.22v59.26h28.46A16 16 0 0 0 150 134.09z"/></symbol><symbol id="twitter" viewBox="0 0 150 150"><path d="M134.47 43.42A67.7 67.7 0 0 0 150 27.31a66.4 66.4 0 0 1-17.58 5 30.54 30.54 0 0 0 13.48-17 62.53 62.53 0 0 1-19.63 7.33 34.72 34.72 0 0 0-10.11-7A29.39 29.39 0 0 0 103.71 13a29.78 29.78 0 0 0-15.24 4.1 30.2 30.2 0 0 0-11.13 11.23 30.59 30.59 0 0 0-4.1 15.4 42.58 42.58 0 0 0 .59 7 85.24 85.24 0 0 1-35.3-9.38 84.81 84.81 0 0 1-28-22.85A29.82 29.82 0 0 0 10 48.71a34.18 34.18 0 0 0 10 11.13 29 29 0 0 1-13.85-4.11v.58a29.56 29.56 0 0 0 7 19.34 31 31 0 0 0 17.61 10.84 38.92 38.92 0 0 1-8.2.88c-1.76 0-3.62-.1-5.57-.29a30.63 30.63 0 0 0 10.69 15.08 28.65 28.65 0 0 0 18 6 61 61 0 0 1-38.36 13.17q-4.1 0-7.32-.27a85.42 85.42 0 0 0 47.17 13.77 84.6 84.6 0 0 0 47.75-13.77A83.63 83.63 0 0 0 124.51 88a86.86 86.86 0 0 0 10.26-40.72 17.4 17.4 0 0 0-.3-3.86z"/></symbol><symbol id="logo" viewBox="0 0 150 150"><path d="M141.19 66.18a66.19 66.19 0 1 0-85.72 63.24l-8.15 18.25a2.26 2.26 0 0 0 1.83 2.62 2.34 2.34 0 0 0 1.33-.18L99 127.88a66.33 66.33 0 0 0 7.27-3.34h.08a66.16 66.16 0 0 0 34.84-58.36zM104 32.84a14.57 14.57 0 1 1-8.88 18.58A14.56 14.56 0 0 1 104 32.84zM70.13 13.16a14.56 14.56 0 1 1-8.89 18.58 14.56 14.56 0 0 1 8.89-18.58zM36.4 32.68a14.56 14.56 0 1 1-8.89 18.58 14.55 14.55 0 0 1 8.89-18.58zm9.51 66.58a14.56 14.56 0 1 1 8.89-18.58 14.56 14.56 0 0 1-8.89 18.58zm33.84 20a14.57 14.57 0 1 1 8.88-18.58 14.56 14.56 0 0 1-8.88 18.58zM75 73.58a7.4 7.4 0 1 1 7.4-7.4 7.39 7.39 0 0 1-7.4 7.4zm38.74 25.83a14.56 14.56 0 1 1 8.89-18.58 14.56 14.56 0 0 1-8.89 18.58z"/></symbol><symbol id="person" viewBox="0 0 150 150"><path d="M75 .09a75 75 0 1 0 75 75 75 75 0 0 0-75-75zm0 22.49a22.48 22.48 0 1 1-.07 0zm0 106.49a54 54 0 0 1-45-24.15c.22-14.92 30-23.1 45-23.1s44.77 8.18 45 23.1a54 54 0 0 1-45 24.15z"/></symbol><symbol id="list-view" viewBox="0 0 150 150"><path d="M19 81.29h12.43v-12.7H19zm0 25.4h12.43V94H19zm0-50.8h12.43v-12.7H19zm24.84 25.4h86.94v-12.7H43.85zm0 25.4h86.94V94H43.85zm0-63.5v12.7h86.94v-12.7z"/></symbol><symbol id="magnifying-glass" viewBox="0 0 150 150"><path d="M99.51 89.4H94.1l-1.92-1.85a44.56 44.56 0 1 0-4.79 4.79l1.85 1.92v5.41l34.23 34.16 10.2-10.21zm-41.07 0a30.81 30.81 0 1 1 30.8-30.81A30.77 30.77 0 0 1 58.51 89.4h-.07z"/></symbol><symbol id="youtube" viewBox="0 0 150 150"><path d="M147 37.94a122.89 122.89 0 0 1 2.75 22.53L150 74.2l-.28 13.74a124.92 124.92 0 0 1-2.75 22.8 19.41 19.41 0 0 1-13.46 13.18q-7.14 1.93-33.51 2.76L75 127l-25-.28q-26.37-.83-33.51-2.75A19.46 19.46 0 0 1 3 110.74a124.92 124.92 0 0 1-2.72-22.8L0 74.21q0-6 .28-13.74A122.89 122.89 0 0 1 3 37.94a19.17 19.17 0 0 1 13.49-13.45q7.14-1.93 33.51-2.76l25-.27 25 .27q26.37.82 33.51 2.76A19.12 19.12 0 0 1 147 37.94zM59.62 96.73L98.9 74.2 59.62 52z"/></symbol><symbol id="icon-view" viewBox="0 0 150 150"><rect width="42.48" height="42.48" x="27.8" y="28.32" rx="3.15"/><rect width="42.48" height="42.48" x="27.8" y="80.25" rx="3.15"/><rect width="42.48" height="42.48" x="79.72" y="28.32" rx="3.15"/><rect width="42.48" height="42.48" x="79.72" y="80.25" rx="3.15"/></symbol></svg>