<svg xmlns="http://www.w3.org/2000/svg" width="256" height="256" viewBox="0 0 256 256"><path fill="#fce84d" d="M240.2 113A110.8 110.8 0 1 0 96.7 218.8l-13.6 30.6a3.8 3.8 0 0 0 5.3 4.1l81.1-37.3a103.2 103.2 0 0 0 12.2-5.5h.1a110.7 110.7 0 0 0 58.4-97.7zm-61.7-55.4a24.4 24.4 0 1 1-15.2 31 24.5 24.5 0 0 1 15.2-31zm-56.4-33.5a24.4 24.4 0 1 1-15.1 31 24.4 24.4 0 0 1 15.1-31zM65.4 56.2a24.4 24.4 0 1 1-15.2 31 24.4 24.4 0 0 1 15.2-31zm14.8 111.6a24.4 24.4 0 1 1 15.2-30.9 24.4 24.4 0 0 1-15.2 30.9zm56.3 34.1a24.4 24.4 0 1 1 15.2-31 24.4 24.4 0 0 1-15.2 31zm-7.1-76.5a12.4 12.4 0 0 1 0-24.8 12.4 12.4 0 1 1 0 24.8zm64.3 43.8a24.4 24.4 0 1 1 15.2-30.9 24.2 24.2 0 0 1-15.2 30.9z"/></svg>