<svg xmlns="http://www.w3.org/2000/svg" width="16" height="16" viewBox="0 0 16 16"><path fill="#fce84d" d="M13.9 7.6a5.9 5.9 0 0 0-11.8 0 5.8 5.8 0 0 0 4.2 5.7l-.8 1.6a.3.3 0 0 0 .3.3l4.3-2 .7-.3a5.9 5.9 0 0 0 3.1-5.3zm-3.3-2.9a1.3 1.3 0 0 1 1.7.8 1.2 1.2 0 0 1-.8 1.6 1.3 1.3 0 0 1-1.7-.8 1.2 1.2 0 0 1 .8-1.6zm-3-1.8a1.3 1.3 0 0 1 1.7.8 1.5 1.5 0 0 1-.8 1.7 1.4 1.4 0 0 1-1.7-.9 1.3 1.3 0 0 1 .8-1.6zm-3 1.7a1.2 1.2 0 0 1 1.6.8 1.3 1.3 0 0 1-.8 1.7 1.3 1.3 0 0 1-1.6-.8 1.3 1.3 0 0 1 .8-1.7zm.8 6a1.4 1.4 0 0 1-1.7-.8 1.3 1.3 0 0 1 .8-1.7 1.4 1.4 0 0 1 1.7.8 1.5 1.5 0 0 1-.8 1.7zm3 1.8a1.4 1.4 0 0 1-1.7-.8 1.5 1.5 0 0 1 .8-1.7 1.4 1.4 0 0 1 1.7.8 1.3 1.3 0 0 1-.8 1.7zM8 8.3a.7.7 0 0 1-.7-.7.7.7 0 0 1 1.4 0 .7.7 0 0 1-.7.7zm3.4 2.3a1.2 1.2 0 0 1-1.6-.8 1.3 1.3 0 0 1 .8-1.6 1.3 1.3 0 1 1 .8 2.4z"/></svg>