<svg xmlns="http://www.w3.org/2000/svg" width="32" height="32" viewBox="0 0 32 32"><path fill="#fce84d" d="M29.4 14.2a13.5 13.5 0 1 0-17.5 12.9l-1.6 3.7a.4.4 0 0 0 .6.5l9.9-4.5 1.4-.7h.1a13.6 13.6 0 0 0 7.1-11.9zm-7.5-6.7a2.9 2.9 0 0 1 3.7 1.8 3 3 0 0 1-1.8 3.8 3 3 0 0 1-3.8-1.9 2.9 2.9 0 0 1 1.9-3.7zM15 3.4a3 3 0 0 1 3.8 1.9A3 3 0 1 1 15 3.4zM8.1 7.3a3 3 0 0 1 3.8 1.9 2.9 2.9 0 0 1-1.9 3.7 2.9 2.9 0 0 1-3.7-1.8 2.9 2.9 0 0 1 1.8-3.8zm1.8 13.6A3.1 3.1 0 0 1 6.1 19 2.9 2.9 0 0 1 8 15.3a3 3 0 1 1 1.9 5.6zm6.9 4.1a2.9 2.9 0 0 1-3.8-1.8 3 3 0 0 1 1.8-3.8 3 3 0 0 1 3.8 1.9 2.9 2.9 0 0 1-1.8 3.7zm-.9-9.3a1.5 1.5 0 1 1 1.5-1.5 1.5 1.5 0 0 1-1.5 1.5zm7.8 5.3a2.9 2.9 0 0 1-3.8-1.8 3 3 0 0 1 5.7-1.9 2.9 2.9 0 0 1-1.9 3.7z"/></svg>