<?xml version="1.0" encoding="utf-8"?>
<!-- Generator: Adobe Illustrator 24.0.3, SVG Export Plug-In . SVG Version: 6.00 Build 0)  -->
<svg version="1.1" id="Layer_1" xmlns="http://www.w3.org/2000/svg" xmlns:xlink="http://www.w3.org/1999/xlink" x="0px" y="0px"
	 viewBox="0 0 150 150" style="enable-background:new 0 0 150 150;" xml:space="preserve">
<style type="text/css">
	.st0{fill:#FFFFFF;}
	.st1{fill:#D32F2F;}
	.st2{fill:#F44336;}
</style>
<path class="st0" d="M129.6,67.5c-2.5,0.6-9.2,0.9-9.2,0.9l-0.8,2.6c0,0,3.3-0.3,5.7,0c0,0,0.8-0.1,0.9,0.9c0,1-0.1,2-0.1,2
	s-0.1,0.6-0.9,0.7c-0.9,0.2-7.2,0.4-7.2,0.4l-1,3.4c0,0-0.4,0.8,0.5,0.6c0.8-0.2,7.4-1.5,8.2-1.3c0.9,0.2,2,1.5,1.6,2.6
	c-0.3,1.4-6.9,5.6-10.9,5.3c0,0-2.1,0.1-3.9-2.7c-1.7-2.7,0.6-7.8,0.6-7.8s-1-2.4-0.3-3.3c0,0,0.4-0.4,1.7-0.5l1.6-3.3
	c0,0-1.8,0.1-2.9-1.2c-1-1.3-1.1-1.9-0.3-2.2c0.8-0.4,8.5-1.8,13.7-1.6c0,0,1.8-0.2,3.5,3C130.2,65.9,130.9,67.2,129.6,67.5
	 M109.9,80.3c-0.6,1.6-2.4,3.3-4.6,2.2c-2.2-1-5.7-8.1-5.7-8.1s-1.3-2.6-1.6-2.6c0,0-0.3-0.5-0.4,2.4c-0.2,2.9,0,8.5-1.1,9.4
	c-1.1,0.9-2.4,0.5-3.1-0.5c-0.6-1-0.9-3.5-0.5-7.7c0.4-4.3,1.4-8.8,2.6-10.2c1.3-1.4,2.3-0.4,2.7,0c0,0,1.7,1.5,4.5,6l0.5,0.8
	l2.8,4.2c0,0,0.2,0.2,0.4,0c0.3-0.1,0.2-1.5,0.2-1.5s-0.5-4.6-2.9-12.4c0,0-0.3-1-0.1-2c0.2-0.9,1.1-0.4,1.1-0.4s3.6,1.7,5.3,7.6
	C111.6,73.4,110.5,78.7,109.9,80.3 M92.2,65.3c-0.3,0.6-0.5,1.5-2,1.7c0,0-14.5,1-15.2,2c0,0-0.5,0.6,0.3,0.8
	c0.8,0.2,4.1,0.6,5.7,0.7c1.7,0,7.4,0,9.4,2.6c0,0,1.2,1.2,1.1,4c0,2.8-0.5,3.8-1.6,4.8c-1.1,1-11,5.4-17.3-1.4c0,0-2.9-3.3,1-5.7
	c0,0,2.8-1.7,10,0.3c0,0,2.2,0.8,2.1,1.6c-0.1,0.9-1.8,1.7-4.2,1.7c-2.3-0.1-4.1-1.2-3.7-1c0.3,0.1-2.5-1.4-3.4-0.4
	c-0.9,1-0.6,1.5,0.2,2.1c2.2,1.3,10.7,0.8,13.2-2c0,0,1-1.1-0.5-2.1c-1.5-0.9-5.9-1.4-7.6-1.5c-1.6-0.1-7.7,0-8.6-1.6
	c0,0-0.9-1.1,0.1-4.2c1-3.3,8.1-4.5,11.2-4.8c0,0,8.5-0.3,10,1.4C92.2,64.3,92.4,64.7,92.2,65.3 M68.2,84.3c-1,0.8-3.2,0.4-3.8-0.4
	c-0.6-0.8-0.8-3.8-0.7-8.5c0.2-4.8,0.2-10.7,1.3-11.7c1.1-0.9,1.7-0.1,2.2,0.5c0.4,0.6,1,1.4,1.1,2.9c0.1,1.5,0.5,9.3,0.5,9.3
	S69.3,83.6,68.2,84.3 M70.4,59c-3,1-5,0.7-6.7-0.1c-0.8,1.4-1.2,1.8-1.8,1.9c-0.9,0.1-1.6-1.3-1.7-1.7c-0.2-0.3-0.6-0.9-0.1-2.2
	c-1.7-1.5-1.8-3.6-1.5-4.9c0.4-1.6,3.3-7.6,11.9-8.3c0,0,4.2-0.3,5,2h0.1c0,0,4.1,0,4,3.7C79.6,52.9,75.1,57.5,70.4,59 M74.3,48.5
	c-2.7,0.4-6.9,4.1-9,7.1c3.1,0.6,8.5,0.3,10.9-4.6C76.3,51,77.4,47.9,74.3,48.5 M62.3,50.9c-0.9,1.4-0.9,2.3-0.5,2.8
	c1-1.5,2.8-3.9,5.5-5.8C65.3,48.1,63.5,49,62.3,50.9 M136.1,84.2c-2,4.9-3.7,9.9-4.7,17.3c0,0-0.2,1.5-1.4,1
	c-1.2-0.4-3.1-2.4-3.6-5.1c-0.4-3.6,1.2-9.7,4.4-16.6c-1-1.5-1.6-3.8-1.1-6.9c0,0,0.9-5.9,6.7-11.1c0,0,0.7-0.6,1.1-0.4
	c0.5,0.2,0.3,2.1-0.1,3c-0.3,0.9-2.9,5.4-2.9,5.4s-1.6,3.1-1.2,5.5c3.1-4.7,10.1-14.3,14.4-11.3c2.8,2,2.8,8.2,0.7,11.9
	C146.9,79.6,142.3,85.6,136.1,84.2 M145.2,69.5c-1.6,1.7-4.5,5-6.7,9.5c2.4-0.3,4.7-1.6,5.4-2.3c1.1-1,3.8-3.8,3.4-7.4
	C147.3,69.3,147,67.4,145.2,69.5 M48.1,86.7C40.4,89.1,33.2,88,29.3,87c-0.1,1.6-0.3,2.3-0.5,2.5c-0.3,0.3-2.8,1.8-4.2-0.3
	c-0.6-1-0.9-2.7-1.1-4.3c-8.9-4-13-10-13.1-10.2c-0.2-0.2-2.2-2.3-0.2-4.9c1.9-2.3,8.1-4.7,13.7-5.6c0.2-4.8,0.7-8.5,1.4-10.1
	c0.8-2,1.8-0.2,2.7,1.1c0.7,1,1.2,5.2,1.2,8.5c3.6-0.2,5.9,0.1,9.9,0.9c5.3,0.9,8.9,3.6,8.6,6.7c-0.3,3-3,4.3-4.1,4.4
	s-2.8-0.7-2.8-0.7c-1.2-0.6-0.1-1.1,1.3-1.7c1.6-0.8,1.2-1.5,1.2-1.5c-0.6-1.7-7.5-2.9-14.3-2.9c0,3.8,0.2,10.1,0.3,13.7
	c4.8,0.9,8.4,0.7,8.4,0.7s17.6-0.5,18.1-11.7c0.5-11.2-17.6-22-30.9-25.4c-13.3-3.5-20.8-1-21.5-0.7C2.5,45.9,3.2,46,3.2,46
	s0.7,0.1,2,0.5c1.3,0.4,0.3,1.1,0.3,1.1c-2.3,0.8-4.8,0.3-5.3-0.7c-0.5-1,0.3-2,1.3-3.3c0.9-1.4,2-1.4,2-1.4
	C19.9,36.5,40,46.8,40,46.8c18.8,9.5,22,20.6,21.6,25C61.3,76,59.7,83.2,48.1,86.7 M11.9,71.2c-1.9,0.9-0.6,2.3-0.6,2.3
	c3.5,3.8,7.8,6.1,11.9,7.6c0.5-6.5,0.4-8.8,0.4-12.1C17.3,69.4,13.6,70.4,11.9,71.2"/>
</svg>
