<svg xmlns="http://www.w3.org/2000/svg" width="64" height="64" viewBox="0 0 64 64"><path d="M56.7 21a36.1 36.1 0 0 1-4.2 16.8 34.6 34.6 0 0 1-12.3 13.7 34.8 34.8 0 0 1-19.7 5.7A35.3 35.3 0 0 1 1 51.5h3a25.5 25.5 0 0 0 15.9-5.4 12.5 12.5 0 0 1-7.5-2.5A12.7 12.7 0 0 1 8 37.4l2.3.2a18.6 18.6 0 0 0 3.4-.4 12.6 12.6 0 0 1-7.3-4.5 12.3 12.3 0 0 1-2.9-8v-.2a13 13 0 0 0 5.7 1.7 15.1 15.1 0 0 1-4.1-4.6 12.9 12.9 0 0 1-1.6-6.1 11.6 11.6 0 0 1 1.9-6.4 35.3 35.3 0 0 0 11.5 9.5 35.2 35.2 0 0 0 14.6 3.8 26.4 26.4 0 0 1-.2-2.9 11.7 11.7 0 0 1 1.7-6.3 11.6 11.6 0 0 1 4.6-4.7 12.4 12.4 0 0 1 6.3-1.7A12.6 12.6 0 0 1 49 7.9a13.7 13.7 0 0 1 4.2 2.9 28.1 28.1 0 0 0 8.1-3 12.5 12.5 0 0 1-5.6 7 24.3 24.3 0 0 0 7.3-2.1 29.1 29.1 0 0 1-6.4 6.7 6.7 6.7 0 0 1 .1 1.6z"/></svg>