<svg xmlns="http://www.w3.org/2000/svg" width="143.3" height="36.7" fill="#fff" viewBox="0 0 143.3 36.7"><path d="M6.9 0h.7l6.8 14.5h-3.7L10 13H4.5l-.7 1.5H.1zm2 10.6L7.3 7h-.1l-1.6 3.6zm7-10.1h5.9c3 0 4.9 1.8 4.9 4.4a4.1 4.1 0 0 1-3.3 4.4l3.8 5.2h-4.3l-3.6-5.3v5.3h-3.4zm6.2 6a1.5 1.5 0 0 0 1.3-1.6A1.5 1.5 0 0 0 22 3.4h-2.7v3.1zm6.3-6h9.3v3h-5.9V6h5.4v3h-5.4v2.5h6.1v3h-9.5zm20.9 7.2l-5-7.2h3.9L51 4.7 53.8.5h3.9l-5 7.2v6.8h-3.4zM65.6 0a7.3 7.3 0 0 1 7.5 7.5 7.5 7.5 0 0 1-15 0A7.3 7.3 0 0 1 65.6 0zm0 11.7a4 4 0 0 0 4.1-4.2 4.1 4.1 0 1 0-8.2 0 4 4 0 0 0 4.1 4.2zM75.5.5h3.4v8.7c0 1.9.9 2.6 2.1 2.6s2.1-.7 2.1-2.6V.5h3.4v9.2c0 3.4-2.4 5.2-5.5 5.2s-5.5-1.9-5.5-5.2zM98 10.4a1.4 1.4 0 0 0 1.4 1.4c.9 0 1.4-.5 1.4-1.2s-1.3-1.3-2.5-1.7-3.6-2-3.6-4.4A4.7 4.7 0 0 1 99.4 0c3.1 0 4.6 2 4.8 4.6H101a1.4 1.4 0 0 0-1.5-1.5A1.4 1.4 0 0 0 98 4.5c0 1 1.3 1.2 2.5 1.6s3.7 2.1 3.7 4.3a4.6 4.6 0 0 1-4.8 4.5 4.4 4.4 0 0 1-4.7-4.5zm10.7-6.9h-3.1v-3h9.7v3h-3.1v11h-3.5zm8.2-3h3.5v14h-3.5zm5.7 0h3.4v11h6.1v3h-9.5zm11.2 0h3.4v11h6.1v3h-9.5zM0 22.3h3.6l2.8 6.6 1.7-4.4-.9-2.2h3.6l2.8 6.6 2.5-6.6h3.6l-5.8 14.4h-.5l-3.4-8-3.4 8h-.4zm24.8-.5h.6l6.9 14.5h-3.7l-.7-1.5h-5.6l-.6 1.5H18zm1.9 10.6l-1.6-3.6H25l-1.6 3.6zm7.4-7.1H31v-3h9.7v3h-3.1v11h-3.5zm15-3.5a7.7 7.7 0 0 1 6 2.6l-2.4 2.2a5.1 5.1 0 0 0-3.6-1.5 4 4 0 0 0-4.1 4.2 4 4 0 0 0 4.1 4.2 4.8 4.8 0 0 0 3.6-1.6l2.3 2.3a8.1 8.1 0 0 1-5.9 2.5 7.3 7.3 0 0 1-7.6-7.4 7.4 7.4 0 0 1 7.6-7.5zm7.7.5h3.4v5.5h5.5v-5.5h3.4v14h-3.4v-5.6h-5.5v5.6h-3.4zm14.5 0h3.4v14h-3.4zm5.7 0h3.6l5.4 8.3v-8.3h3.4v14h-3.5l-5.5-8.4v8.4H77zm22.2-.5a7.5 7.5 0 0 1 5.8 2.5l-2.3 2.2a5.2 5.2 0 0 0-3.5-1.4 4 4 0 0 0-4.1 4.2 4 4 0 0 0 4.2 4.2c2.4 0 3.6-1.4 3.7-2.7h-4v-3h7.7v1.4c0 4.1-2.4 7.5-7.5 7.5a7.3 7.3 0 0 1-7.6-7.4 7.4 7.4 0 0 1 7.6-7.5zm12.7 5.7a3.3 3.3 0 0 0 1.5.4 1.5 1.5 0 0 0 1.6-1.6 1.4 1.4 0 0 0-1.5-1.4 1.4 1.4 0 0 0-1.4 1.4v.4h-3.4v-.4a4.5 4.5 0 0 1 4.8-4.4c3 0 4.9 2 4.9 4.3a4 4 0 0 1-3.3 4.3v2.1h-3.2zm1.5 5.9a1.6 1.6 0 1 1-1.7 1.6 1.6 1.6 0 0 1 1.7-1.6z"/></svg>