<svg xmlns="http://www.w3.org/2000/svg" width="64" height="64" viewBox="0 0 64 64"><path d="M61.8 17a53.6 53.6 0 0 1 1.1 9.3v11.4a52.5 52.5 0 0 1-1.1 9.4 8.1 8.1 0 0 1-2.1 3.4 8.4 8.4 0 0 1-3.5 2.1c-2 .5-6.6.9-13.9 1.1H21.7c-7.3-.2-11.9-.6-13.9-1.1a8.4 8.4 0 0 1-3.5-2.1 8.1 8.1 0 0 1-2.1-3.4 52.5 52.5 0 0 1-1.1-9.4V32c0-1.7 0-3.6.1-5.7a53.6 53.6 0 0 1 1-9.3 7.8 7.8 0 0 1 2.1-3.5 8.4 8.4 0 0 1 3.5-2.1c2-.5 6.6-.9 13.9-1.1h20.6c7.3.2 11.9.6 13.9 1.1a8.4 8.4 0 0 1 3.5 2.1 7.8 7.8 0 0 1 2.1 3.5zM25.6 41.3L41.9 32l-16.3-9.2z"/></svg>